<mxfile host="app.diagrams.net" modified="2022-03-22T19:10:10.769Z" agent="5.0 (X11)" etag="b7VapqX9srRKUVvibbAd" version="17.1.4" type="github">
  <diagram id="N9eQW-Dw9LbeWdvz8uxa" name="Page-1">
    <mxGraphModel dx="2272" dy="759" grid="1" gridSize="10" guides="1" tooltips="1" connect="1" arrows="1" fold="1" page="1" pageScale="1" pageWidth="850" pageHeight="1100" math="0" shadow="0">
      <root>
        <mxCell id="0" />
        <mxCell id="1" parent="0" />
        <mxCell id="H1wtRHwN5KbFagwSFmS6-1" style="edgeStyle=orthogonalEdgeStyle;rounded=0;orthogonalLoop=1;jettySize=auto;html=1;" parent="1" source="H1wtRHwN5KbFagwSFmS6-2" edge="1">
          <mxGeometry relative="1" as="geometry">
            <mxPoint x="335" y="520" as="targetPoint" />
            <Array as="points">
              <mxPoint x="435" y="500" />
              <mxPoint x="335" y="500" />
            </Array>
          </mxGeometry>
        </mxCell>
        <mxCell id="H1wtRHwN5KbFagwSFmS6-2" value="Run Wireshark" style="ellipse;whiteSpace=wrap;html=1;" parent="1" vertex="1">
          <mxGeometry x="400" y="400" width="120" height="80" as="geometry" />
        </mxCell>
        <mxCell id="H1wtRHwN5KbFagwSFmS6-3" style="edgeStyle=orthogonalEdgeStyle;rounded=0;orthogonalLoop=1;jettySize=auto;html=1;entryX=1;entryY=0.5;entryDx=0;entryDy=0;" parent="1" source="H1wtRHwN5KbFagwSFmS6-4" target="H1wtRHwN5KbFagwSFmS6-9" edge="1">
          <mxGeometry relative="1" as="geometry" />
        </mxCell>
        <mxCell id="H1wtRHwN5KbFagwSFmS6-4" value="Run nmap" style="ellipse;whiteSpace=wrap;html=1;" parent="1" vertex="1">
          <mxGeometry x="555" y="400" width="120" height="80" as="geometry" />
        </mxCell>
        <mxCell id="H1wtRHwN5KbFagwSFmS6-5" style="edgeStyle=orthogonalEdgeStyle;rounded=0;orthogonalLoop=1;jettySize=auto;html=1;entryX=0;entryY=0.5;entryDx=0;entryDy=0;" parent="1" source="H1wtRHwN5KbFagwSFmS6-6" target="H1wtRHwN5KbFagwSFmS6-9" edge="1">
          <mxGeometry relative="1" as="geometry" />
        </mxCell>
        <mxCell id="H1wtRHwN5KbFagwSFmS6-6" value="&lt;div&gt;See Report/&lt;/div&gt;&lt;div&gt;Fix issues&lt;br&gt;&lt;/div&gt;" style="ellipse;whiteSpace=wrap;html=1;aspect=fixed;" parent="1" vertex="1">
          <mxGeometry x="295" y="520" width="80" height="80" as="geometry" />
        </mxCell>
        <mxCell id="H1wtRHwN5KbFagwSFmS6-7" style="edgeStyle=orthogonalEdgeStyle;rounded=0;orthogonalLoop=1;jettySize=auto;html=1;" parent="1" source="H1wtRHwN5KbFagwSFmS6-8" target="H1wtRHwN5KbFagwSFmS6-6" edge="1">
          <mxGeometry relative="1" as="geometry">
            <Array as="points">
              <mxPoint x="140" y="500" />
              <mxPoint x="335" y="500" />
            </Array>
          </mxGeometry>
        </mxCell>
        <mxCell id="H1wtRHwN5KbFagwSFmS6-8" value="Run NMAP" style="ellipse;whiteSpace=wrap;html=1;" parent="1" vertex="1">
          <mxGeometry x="80" y="400" width="120" height="80" as="geometry" />
        </mxCell>
        <mxCell id="H1wtRHwN5KbFagwSFmS6-9" value="" style="ellipse;html=1;shape=endState;fillColor=#000000;strokeColor=#ff0000;" parent="1" vertex="1">
          <mxGeometry x="485" y="520" width="85" height="80" as="geometry" />
        </mxCell>
        <mxCell id="H1wtRHwN5KbFagwSFmS6-12" style="edgeStyle=orthogonalEdgeStyle;rounded=0;orthogonalLoop=1;jettySize=auto;html=1;entryX=0.5;entryY=0;entryDx=0;entryDy=0;" parent="1" source="H1wtRHwN5KbFagwSFmS6-10" target="H1wtRHwN5KbFagwSFmS6-8" edge="1">
          <mxGeometry relative="1" as="geometry" />
        </mxCell>
        <mxCell id="H1wtRHwN5KbFagwSFmS6-13" style="edgeStyle=orthogonalEdgeStyle;rounded=0;orthogonalLoop=1;jettySize=auto;html=1;" parent="1" source="H1wtRHwN5KbFagwSFmS6-10" target="H1wtRHwN5KbFagwSFmS6-2" edge="1">
          <mxGeometry relative="1" as="geometry" />
        </mxCell>
        <mxCell id="H1wtRHwN5KbFagwSFmS6-22" style="edgeStyle=orthogonalEdgeStyle;rounded=0;orthogonalLoop=1;jettySize=auto;html=1;" parent="1" source="H1wtRHwN5KbFagwSFmS6-10" target="H1wtRHwN5KbFagwSFmS6-21" edge="1">
          <mxGeometry relative="1" as="geometry" />
        </mxCell>
        <mxCell id="SXPgMmrbzd-KRAOtA5-P-2" style="edgeStyle=orthogonalEdgeStyle;rounded=0;orthogonalLoop=1;jettySize=auto;html=1;entryX=0.5;entryY=0;entryDx=0;entryDy=0;" edge="1" parent="1" source="H1wtRHwN5KbFagwSFmS6-10" target="SXPgMmrbzd-KRAOtA5-P-1">
          <mxGeometry relative="1" as="geometry" />
        </mxCell>
        <mxCell id="H1wtRHwN5KbFagwSFmS6-10" value="Admin " style="html=1;" parent="1" vertex="1">
          <mxGeometry x="280" y="280" width="110" height="50" as="geometry" />
        </mxCell>
        <mxCell id="H1wtRHwN5KbFagwSFmS6-14" style="edgeStyle=orthogonalEdgeStyle;rounded=0;orthogonalLoop=1;jettySize=auto;html=1;entryX=0.5;entryY=0;entryDx=0;entryDy=0;" parent="1" source="H1wtRHwN5KbFagwSFmS6-11" target="H1wtRHwN5KbFagwSFmS6-4" edge="1">
          <mxGeometry relative="1" as="geometry" />
        </mxCell>
        <mxCell id="H1wtRHwN5KbFagwSFmS6-11" value="General" style="html=1;" parent="1" vertex="1">
          <mxGeometry x="560" y="280" width="110" height="50" as="geometry" />
        </mxCell>
        <mxCell id="H1wtRHwN5KbFagwSFmS6-18" style="edgeStyle=orthogonalEdgeStyle;rounded=0;orthogonalLoop=1;jettySize=auto;html=1;entryX=0.5;entryY=0;entryDx=0;entryDy=0;" parent="1" source="H1wtRHwN5KbFagwSFmS6-15" target="H1wtRHwN5KbFagwSFmS6-10" edge="1">
          <mxGeometry relative="1" as="geometry" />
        </mxCell>
        <mxCell id="H1wtRHwN5KbFagwSFmS6-20" style="edgeStyle=orthogonalEdgeStyle;rounded=0;orthogonalLoop=1;jettySize=auto;html=1;" parent="1" source="H1wtRHwN5KbFagwSFmS6-15" target="H1wtRHwN5KbFagwSFmS6-11" edge="1">
          <mxGeometry relative="1" as="geometry" />
        </mxCell>
        <mxCell id="H1wtRHwN5KbFagwSFmS6-15" value="&lt;div&gt;Check Login Credentials&lt;/div&gt;" style="rounded=0;whiteSpace=wrap;html=1;" parent="1" vertex="1">
          <mxGeometry x="420" y="200" width="120" height="60" as="geometry" />
        </mxCell>
        <mxCell id="H1wtRHwN5KbFagwSFmS6-16" value="" style="ellipse;html=1;shape=startState;fillColor=#000000;strokeColor=#ff0000;" parent="1" vertex="1">
          <mxGeometry x="435" y="30" width="90" height="80" as="geometry" />
        </mxCell>
        <mxCell id="H1wtRHwN5KbFagwSFmS6-17" value="" style="edgeStyle=orthogonalEdgeStyle;html=1;verticalAlign=bottom;endArrow=open;endSize=8;strokeColor=#ff0000;rounded=0;entryX=0.5;entryY=0;entryDx=0;entryDy=0;" parent="1" source="H1wtRHwN5KbFagwSFmS6-16" target="H1wtRHwN5KbFagwSFmS6-15" edge="1">
          <mxGeometry relative="1" as="geometry">
            <mxPoint x="425" y="90" as="targetPoint" />
          </mxGeometry>
        </mxCell>
        <mxCell id="H1wtRHwN5KbFagwSFmS6-23" style="edgeStyle=orthogonalEdgeStyle;rounded=0;orthogonalLoop=1;jettySize=auto;html=1;" parent="1" source="H1wtRHwN5KbFagwSFmS6-21" target="H1wtRHwN5KbFagwSFmS6-6" edge="1">
          <mxGeometry relative="1" as="geometry" />
        </mxCell>
        <mxCell id="H1wtRHwN5KbFagwSFmS6-21" value="Run ExploitSearch" style="ellipse;whiteSpace=wrap;html=1;" parent="1" vertex="1">
          <mxGeometry x="240" y="400" width="120" height="80" as="geometry" />
        </mxCell>
        <mxCell id="SXPgMmrbzd-KRAOtA5-P-3" style="edgeStyle=orthogonalEdgeStyle;rounded=0;orthogonalLoop=1;jettySize=auto;html=1;entryX=-0.037;entryY=0.613;entryDx=0;entryDy=0;entryPerimeter=0;" edge="1" parent="1" source="SXPgMmrbzd-KRAOtA5-P-1" target="H1wtRHwN5KbFagwSFmS6-6">
          <mxGeometry relative="1" as="geometry">
            <mxPoint y="580" as="targetPoint" />
            <Array as="points">
              <mxPoint y="569" />
            </Array>
          </mxGeometry>
        </mxCell>
        <mxCell id="SXPgMmrbzd-KRAOtA5-P-1" value="&lt;div&gt;See Port Stats&lt;/div&gt;" style="ellipse;whiteSpace=wrap;html=1;" vertex="1" parent="1">
          <mxGeometry x="-60" y="400" width="120" height="80" as="geometry" />
        </mxCell>
      </root>
    </mxGraphModel>
  </diagram>
</mxfile>
